{
	"asset":{
		"generator":"Khronos glTF Blender I/O v3.6.27",
		"version":"2.0"
	},
	"scene":0,
	"scenes":[
		{
			"name":"Scene",
			"nodes":[
				2,
				9
			]
		}
	],
	"nodes":[
		{
			"name":"Object_12"
		},
		{
			"children":[
				0
			],
			"name":"Object_11",
			"rotation":[
				0.70710688829422,
				0,
				0,
				0.7071066498756409
			],
			"translation":[
				3.337860107421875e-06,
				0,
				0
			]
		},
		{
			"children":[
				1
			],
			"name":"Sun.001",
			"rotation":[
				0.5162962675094604,
				-0.3614789843559265,
				0.0637412965297699,
				0.7737623453140259
			],
			"scale":[
				99.99999237060547,
				99.99999237060547,
				100
			],
			"translation":[
				512.28076171875,
				1681.8251953125,
				2800.34423828125
			]
		},
		{
			"name":"Tree2_Baked",
			"rotation":[
				-0.70710688829422,
				0,
				0,
				0.7071066498756409
			],
			"scale":[
				100,
				99.99999237060547,
				99.99999237060547
			],
			"translation":[
				73.95791625976562,
				-9.52844524383545,
				-344.5956726074219
			]
		},
		{
			"mesh":0,
			"name":"Tree3_Baked_Branch_Bake1_baked_0",
			"translation":[
				-3.2045116424560547,
				-4.776754379272461,
				2.0104897022247314
			]
		},
		{
			"mesh":1,
			"name":"Tree3_Baked_Tree3_Bake1_baked_0",
			"translation":[
				-3.2045116424560547,
				-4.776754379272461,
				2.0104897022247314
			]
		},
		{
			"children":[
				4,
				5
			],
			"name":"Tree3_Baked",
			"rotation":[
				-0.70710688829422,
				0,
				0,
				0.7071066498756409
			],
			"scale":[
				100,
				99.99999237060547,
				99.99999237060547
			],
			"translation":[
				667.2474975585938,
				-9.347698211669922,
				-336.4683837890625
			]
		},
		{
			"children":[
				3,
				6
			],
			"name":"RootNode"
		},
		{
			"children":[
				7
			],
			"name":"FantasyAssets_TreesAndBushes.fbx",
			"rotation":[
				0.70710688829422,
				0,
				0,
				0.7071066498756409
			],
			"scale":[
				0.009999999776482582,
				0.010000000707805157,
				0.010000000707805157
			]
		},
		{
			"children":[
				8
			],
			"name":"Sketchfab_model",
			"rotation":[
				-0.70710688829422,
				0,
				0,
				0.7071066498756409
			]
		}
	],
	"materials":[
		{
			"alphaCutoff":0.5230000019073486,
			"alphaMode":"MASK",
			"doubleSided":true,
			"name":"Branch_Bake1_baked",
			"pbrMetallicRoughness":{}
		},
		{
			"doubleSided":true,
			"name":"Tree3_Bake1_baked",
			"pbrMetallicRoughness":{}
		}
	],
	"meshes":[
		{
			"name":"Tree3_Baked_Branch_Bake1_baked_0",
			"primitives":[
				{
					"attributes":{
						"POSITION":0,
						"NORMAL":1,
						"TEXCOORD_0":2,
						"TEXCOORD_1":3,
						"TEXCOORD_2":4,
						"TEXCOORD_3":5
					},
					"indices":6,
					"material":0
				}
			]
		},
		{
			"name":"Tree3_Baked_Tree3_Bake1_baked_0",
			"primitives":[
				{
					"attributes":{
						"POSITION":7,
						"NORMAL":8,
						"TEXCOORD_0":9,
						"TEXCOORD_1":10,
						"TEXCOORD_2":11,
						"TEXCOORD_3":12
					},
					"indices":13,
					"material":1
				}
			]
		}
	],
	"accessors":[
		{
			"bufferView":0,
			"componentType":5126,
			"count":5486,
			"max":[
				2.240199089050293,
				2.020488739013672,
				5.596194267272949
			],
			"min":[
				-2.515808343887329,
				-2.3181679248809814,
				1.2030394077301025
			],
			"type":"VEC3"
		},
		{
			"bufferView":1,
			"componentType":5126,
			"count":5486,
			"type":"VEC3"
		},
		{
			"bufferView":2,
			"componentType":5126,
			"count":5486,
			"type":"VEC2"
		},
		{
			"bufferView":3,
			"componentType":5126,
			"count":5486,
			"type":"VEC2"
		},
		{
			"bufferView":4,
			"componentType":5126,
			"count":5486,
			"type":"VEC2"
		},
		{
			"bufferView":5,
			"componentType":5126,
			"count":5486,
			"type":"VEC2"
		},
		{
			"bufferView":6,
			"componentType":5123,
			"count":12000,
			"type":"SCALAR"
		},
		{
			"bufferView":7,
			"componentType":5126,
			"count":15474,
			"max":[
				1.7773323059082031,
				1.5127460956573486,
				4.974532127380371
			],
			"min":[
				-1.9490091800689697,
				-1.9110957384109497,
				0.008985042572021484
			],
			"type":"VEC3"
		},
		{
			"bufferView":8,
			"componentType":5126,
			"count":15474,
			"type":"VEC3"
		},
		{
			"bufferView":9,
			"componentType":5126,
			"count":15474,
			"type":"VEC2"
		},
		{
			"bufferView":10,
			"componentType":5126,
			"count":15474,
			"type":"VEC2"
		},
		{
			"bufferView":11,
			"componentType":5126,
			"count":15474,
			"type":"VEC2"
		},
		{
			"bufferView":12,
			"componentType":5126,
			"count":15474,
			"type":"VEC2"
		},
		{
			"bufferView":13,
			"componentType":5123,
			"count":52608,
			"type":"SCALAR"
		}
	],
	"bufferViews":[
		{
			"buffer":0,
			"byteLength":65832,
			"byteOffset":0,
			"target":34962
		},
		{
			"buffer":0,
			"byteLength":65832,
			"byteOffset":65832,
			"target":34962
		},
		{
			"buffer":0,
			"byteLength":43888,
			"byteOffset":131664,
			"target":34962
		},
		{
			"buffer":0,
			"byteLength":43888,
			"byteOffset":175552,
			"target":34962
		},
		{
			"buffer":0,
			"byteLength":43888,
			"byteOffset":219440,
			"target":34962
		},
		{
			"buffer":0,
			"byteLength":43888,
			"byteOffset":263328,
			"target":34962
		},
		{
			"buffer":0,
			"byteLength":24000,
			"byteOffset":307216,
			"target":34963
		},
		{
			"buffer":0,
			"byteLength":185688,
			"byteOffset":331216,
			"target":34962
		},
		{
			"buffer":0,
			"byteLength":185688,
			"byteOffset":516904,
			"target":34962
		},
		{
			"buffer":0,
			"byteLength":123792,
			"byteOffset":702592,
			"target":34962
		},
		{
			"buffer":0,
			"byteLength":123792,
			"byteOffset":826384,
			"target":34962
		},
		{
			"buffer":0,
			"byteLength":123792,
			"byteOffset":950176,
			"target":34962
		},
		{
			"buffer":0,
			"byteLength":123792,
			"byteOffset":1073968,
			"target":34962
		},
		{
			"buffer":0,
			"byteLength":105216,
			"byteOffset":1197760,
			"target":34963
		}
	],
	"buffers":[
		{
			"byteLength":1302976,
			"uri":"data:application/octet-stream;base64,"
		}
	]
}
